<svg width="20" height="17" viewBox="0 0 20 17" fill="none" xmlns="http://www.w3.org/2000/svg">
<path d="M4.87988 10.3154H2.7793V15H0.142578V2.20312H4.89746C6.40918 2.20312 7.5752 2.54004 8.39551 3.21387C9.21582 3.8877 9.62598 4.83984 9.62598 6.07031C9.62598 6.94336 9.43555 7.67285 9.05469 8.25879C8.67969 8.83887 8.1084 9.30176 7.34082 9.64746L10.1094 14.877V15H7.2793L4.87988 10.3154ZM2.7793 8.17969H4.90625C5.56836 8.17969 6.08105 8.0127 6.44434 7.67871C6.80762 7.33887 6.98926 6.87305 6.98926 6.28125C6.98926 5.67773 6.81641 5.20312 6.4707 4.85742C6.13086 4.51172 5.60645 4.33887 4.89746 4.33887H2.7793V8.17969ZM17.4395 11.6338C17.4395 11.1533 17.3047 10.7725 17.0352 10.4912C16.7715 10.2041 16.3203 9.94043 15.6816 9.7002C15.043 9.45996 14.4922 9.22266 14.0293 8.98828C13.5664 8.74805 13.168 8.47559 12.834 8.1709C12.5059 7.86035 12.248 7.49707 12.0605 7.08105C11.8789 6.66504 11.7881 6.16992 11.7881 5.5957C11.7881 4.60547 12.1045 3.79395 12.7373 3.16113C13.3701 2.52832 14.2109 2.15918 15.2598 2.05371V0.172852H16.666V2.08008C17.7031 2.22656 18.5146 2.66016 19.1006 3.38086C19.6865 4.0957 19.9795 5.02441 19.9795 6.16699H17.4395C17.4395 5.46387 17.293 4.93945 17 4.59375C16.7129 4.24219 16.3262 4.06641 15.8398 4.06641C15.3594 4.06641 14.9873 4.2041 14.7236 4.47949C14.46 4.74902 14.3281 5.12402 14.3281 5.60449C14.3281 6.0498 14.457 6.40723 14.7148 6.67676C14.9727 6.94629 15.4502 7.22168 16.1475 7.50293C16.8506 7.78418 17.4277 8.05078 17.8789 8.30273C18.3301 8.54883 18.7109 8.83008 19.0215 9.14648C19.332 9.45703 19.5693 9.81445 19.7334 10.2188C19.8975 10.6172 19.9795 11.083 19.9795 11.6162C19.9795 12.6123 19.6689 13.4209 19.0479 14.042C18.4268 14.6631 17.5713 15.0293 16.4814 15.1406V16.8896H15.084V15.1494C13.8828 15.0205 12.9512 14.5957 12.2891 13.875C11.6328 13.1484 11.3047 12.1846 11.3047 10.9834H13.8447C13.8447 11.6807 14.0088 12.2168 14.3369 12.5918C14.6709 12.9609 15.1484 13.1455 15.7695 13.1455C16.2852 13.1455 16.6924 13.0107 16.9912 12.7412C17.29 12.4658 17.4395 12.0967 17.4395 11.6338Z" fill="#BCBCBC"/>
</svg>
